<svg width="347" height="374" viewBox="0 0 347 374" fill="none" xmlns="http://www.w3.org/2000/svg">
<rect x="88" y="62" width="192" height="255" fill="#FCFCFD"/>
<path d="M98.3999 46.5333C78.2666 53.0666 64.5333 66.9333 58.3999 87.2C55.7333 96 55.5999 98.9333 55.4666 191.2L55.3333 286L58.3999 294.933C65.7333 316.133 80.7999 329.467 102.533 334.133C113.733 336.4 250.8 336.8 263.333 334.533C274.4 332.533 283.6 328 291.733 320.667C299.467 313.6 303.867 306.933 308.267 295.2C311.2 287.333 311.333 286.8 311.733 196C312 140 311.6 101.467 310.8 96.2667C308.133 79.6 298.4 63.4666 285.333 54.8C269.467 44 275.6 44.6666 186 44.4C111.467 44.1333 105.467 44.2666 98.3999 46.5333ZM241.6 103.6C255.333 117.333 267.6 130.4 268.667 132.667C270.533 136.267 270.8 145.067 270.4 210.267C270 282.533 270 283.867 267.2 287.6C265.733 289.6 262.4 292.667 260 294.267L255.6 297.333H184H112.4L108 294.267C98.3999 287.867 98.9333 293.867 98.3999 189.333C97.9999 103.867 98.2666 94.9333 100.267 91.3333C102.933 86.4 107.6 81.8667 112 80.1333C114 79.3333 135.6 78.8 166 78.8L216.533 78.6667L241.6 103.6Z" fill="#2563EB"/>
<path d="M231.733 213.6C227.067 218.933 218.8 228.533 213.333 234.933C208 241.467 202.8 246.667 202 246.667C201.2 246.667 197.6 243.6 194 240C190.4 236.267 186.8 233.333 185.867 233.333C183.867 233.333 180 237.733 180 240.133C180 242.8 200.133 262.667 202.933 262.667C204 262.667 205.867 261.467 206.8 260.133C207.867 258.667 217.467 247.067 228.4 234.267C239.2 221.467 248 210.133 248 209.067C248 206.533 245.333 204 242.533 204C241.333 204 236.533 208.4 231.733 213.6Z" fill="#1D4ED8"/>
<line x1="204" y1="146" x2="135" y2="146" stroke="#D6DCE8" stroke-width="20" stroke-linecap="round"/>
<line x1="204" y1="190" x2="135" y2="190" stroke="#D6DCE8" stroke-width="20" stroke-linecap="round"/>
<line x1="160" y1="240" x2="135" y2="240" stroke="#D6DCE8" stroke-width="20" stroke-linecap="round"/>
</svg>
