<svg xmlns="http://www.w3.org/2000/svg" viewBox="124 104 760 760"><g fill="#FFFFFF">
  <rect x="290" y="225" width="420" height="530" rx="24"/>
  <circle cx="640" cy="628" r="135"/>
</g><g transform="translate(0.000000,1024.000000) scale(0.100000,-0.100000)"><path d="M2878 8739 c-217 -34 -402 -113 -582 -248 -257 -194 -430 -479 -494 -815 -16 -85 -17 -247 -17 -2296 l0 -2205 27 -127 c48 -221 111 -366 234 -535 157 -215 379 -371 639 -448 74 -22 121 -29 265 -35 236 -11 3916 -12 4155 -1 156 8 205 14 275 34 281 84 520 246 684 464 80 107 136 213 180 343 76 227 70 38 73 2395 2 1318 0 2166 -6 2260 -17 257 -76 439 -204 634 -179 273 -462 473 -776 551 -204 51 -140 50 -2311 49 -1924 -1 -2031 -2 -2142 -20z m2934 -620 c29 -6 82 -25 118 -42 59 -28 116 -82 670 -638 444 -444 613 -621 634 -659 56 -104 56 -93 56 -890 0 -404 4 -752 9 -773 7 -30 31 -60 113 -140 133 -130 220 -248 296 -400 111 -221 151 -434 137 -712 -21 -401 -232 -775 -570 -1010 -160 -112 -324 -182 -515 -221 -116 -24 -139 -26 -320 -21 -208 5 -319 25 -450 79 l-55 23 -1420 5 c-1556 5 -1428 0 -1551 63 -137 70 -243 217 -275 382 -14 71 -14 4461 0 4535 6 30 30 93 53 140 67 138 184 236 328 276 62 17 2662 20 2742 3z" fill="#04a4fc" stroke="none" /><path d="M2900 9059 c-204 -21 -377 -72 -560 -165 -419 -214 -733 -613 -830 -1059 -40 -178 -40 -179 -40 -2435 0 -1343 4 -2210 10 -2268 66 -624 490 -1157 1065 -1338 234 -73 35 -67 2385 -71 1459 -3 2154 -1 2241 7 271 23 506 106 739 261 124 82 342 299 427 424 140 208 226 432 258 673 22 166 22 4452 0 4612 -48 352 -195 642 -453 892 -284 275 -628 434 -1014 468 -140 12 -4105 11 -4228 -1z m4248 -334 c262 -37 442 -108 647 -256 109 -78 209 -184 292 -310 128 -195 187 -377 204 -634 6 -94 8 -942 6 -2260 -3 -2357 3 -2168 -73 -2395 -131 -387 -427 -663 -844 -787 -70 -20 -119 -26 -275 -34 -239 -11 -3919 -10 -4155 1 -144 6 -191 13 -265 35 -256 75 -470 224 -619 428 -123 169 -186 314 -234 535 l-27 127 0 2205 c0 2049 1 2211 17 2296 37 193 100 351 203 504 87 129 159 206 271 291 180 135 365 214 582 248 111 18 218 19 2142 20 1724 1 2040 -2 2128 -14z" fill="#1b2c44" stroke="none" /><path d="M3070 8136 c-146 -40 -279 -153 -349 -296 -22 -47 -46 -110 -52 -140 -14 -74 -14 -4464 0 -4535 40 -203 175 -359 385 -444 37 -14 175 -16 1461 -21 l1420 -5 55 -23 c131 -54 242 -74 450 -79 181 -5 204 -3 320 21 526 107 942 506 1075 1031 29 114 40 310 26 470 -13 161 -56 307 -133 462 -76 152 -162 269 -296 401 -80 79 -106 111 -113 140 -5 20 -9 368 -9 772 0 798 0 786 -56 891 -22 39 -186 210 -644 669 -563 564 -620 619 -680 647 -36 17 -89 36 -118 42 -80 17 -2680 14 -2742 -3z m2545 -749 l1 -462 27 -74 c15 -41 41 -96 58 -123 66 -103 194 -193 334 -234 53 -15 116 -18 508 -21 l447 -4 0 -610 c0 -335 -2 -609 -4 -609 -2 0 -29 11 -60 25 -153 68 -311 99 -501 99 -155 0 -238 -11 -371 -49 -386 -112 -742 -447 -887 -835 -71 -190 -97 -332 -97 -525 0 -165 18 -280 66 -424 55 -167 168 -365 267 -468 l31 -33 -1125 0 c-743 0 -1137 4 -1161 10 -53 15 -119 68 -148 120 l-25 45 -3 2200 c-3 2484 -10 2268 77 2355 84 84 -11 79 1356 79 l1210 1 0 -463z m1182 -574 c-2 -1 -156 -3 -342 -4 -334 -2 -341 -1 -387 21 -26 12 -61 37 -77 56 -56 63 -61 103 -61 468 l0 331 435 -435 c239 -239 433 -435 432 -437z m-131 -1777 c435 -94 785 -450 859 -873 17 -99 19 -260 5 -351 -23 -137 -87 -298 -168 -421 -92 -139 -280 -299 -444 -376 -293 -138 -650 -134 -943 11 -158 78 -308 210 -406 359 -62 94 -81 134 -117 241 -43 127 -55 229 -49 397 10 280 103 503 296 709 157 167 344 272 560 313 94 18 306 13 407 -9z" fill="#1b2c44" stroke="none" /><path d="M3505 6937 c-69 -39 -101 -123 -74 -194 15 -42 68 -92 109 -103 21 -6 303 -10 725 -10 l691 0 44 23 c115 57 127 195 24 273 l-37 29 -721 2 -721 3 -40 -23z" fill="#1b2c44" stroke="none" /><path d="M3505 6077 c-43 -24 -85 -91 -85 -137 0 -46 42 -113 85 -137 l40 -23 948 0 c925 0 949 0 987 20 59 30 85 74 85 142 0 61 -17 94 -69 132 -27 21 -35 21 -989 23 l-962 3 -40 -23z" fill="#1b2c44" stroke="none" /><path d="M3555 5241 c-66 -16 -119 -68 -131 -129 -15 -73 32 -159 103 -188 43 -18 1411 -21 1446 -3 60 31 107 101 107 158 -1 47 -36 108 -81 138 l-43 28 -685 1 c-377 1 -699 -1 -716 -5z" fill="#1b2c44" stroke="none" /><path d="M6935 4510 c-29 -15 -122 -114 -345 -370 l-305 -349 -170 168 c-93 93 -180 174 -192 180 -12 6 -44 11 -72 11 -42 0 -56 -5 -86 -31 -64 -57 -82 -125 -50 -193 8 -17 124 -140 258 -273 207 -207 247 -242 280 -248 55 -11 103 2 144 38 20 18 176 192 347 387 170 195 328 375 349 400 84 95 95 168 35 236 -58 66 -120 80 -193 44z" fill="#1b2c44" stroke="none" /></g></svg>