<svg xmlns="http://www.w3.org/2000/svg" viewBox="0 0 385 96" width="385" height="96">
  <svg x="0" y="0" width="96" height="96" viewBox="124 104 760 760"><g fill="#FFFFFF">
  <rect x="290" y="225" width="420" height="530" rx="24"/>
  <circle cx="640" cy="628" r="135"/>
</g><g transform="translate(0.000000,1024.000000) scale(0.100000,-0.100000)"><path d="M2878 8739 c-217 -34 -402 -113 -582 -248 -257 -194 -430 -479 -494 -815 -16 -85 -17 -247 -17 -2296 l0 -2205 27 -127 c48 -221 111 -366 234 -535 157 -215 379 -371 639 -448 74 -22 121 -29 265 -35 236 -11 3916 -12 4155 -1 156 8 205 14 275 34 281 84 520 246 684 464 80 107 136 213 180 343 76 227 70 38 73 2395 2 1318 0 2166 -6 2260 -17 257 -76 439 -204 634 -179 273 -462 473 -776 551 -204 51 -140 50 -2311 49 -1924 -1 -2031 -2 -2142 -20z m2934 -620 c29 -6 82 -25 118 -42 59 -28 116 -82 670 -638 444 -444 613 -621 634 -659 56 -104 56 -93 56 -890 0 -404 4 -752 9 -773 7 -30 31 -60 113 -140 133 -130 220 -248 296 -400 111 -221 151 -434 137 -712 -21 -401 -232 -775 -570 -1010 -160 -112 -324 -182 -515 -221 -116 -24 -139 -26 -320 -21 -208 5 -319 25 -450 79 l-55 23 -1420 5 c-1556 5 -1428 0 -1551 63 -137 70 -243 217 -275 382 -14 71 -14 4461 0 4535 6 30 30 93 53 140 67 138 184 236 328 276 62 17 2662 20 2742 3z" fill="#04a4fc" stroke="none" /><path d="M2900 9059 c-204 -21 -377 -72 -560 -165 -419 -214 -733 -613 -830 -1059 -40 -178 -40 -179 -40 -2435 0 -1343 4 -2210 10 -2268 66 -624 490 -1157 1065 -1338 234 -73 35 -67 2385 -71 1459 -3 2154 -1 2241 7 271 23 506 106 739 261 124 82 342 299 427 424 140 208 226 432 258 673 22 166 22 4452 0 4612 -48 352 -195 642 -453 892 -284 275 -628 434 -1014 468 -140 12 -4105 11 -4228 -1z m4248 -334 c262 -37 442 -108 647 -256 109 -78 209 -184 292 -310 128 -195 187 -377 204 -634 6 -94 8 -942 6 -2260 -3 -2357 3 -2168 -73 -2395 -131 -387 -427 -663 -844 -787 -70 -20 -119 -26 -275 -34 -239 -11 -3919 -10 -4155 1 -144 6 -191 13 -265 35 -256 75 -470 224 -619 428 -123 169 -186 314 -234 535 l-27 127 0 2205 c0 2049 1 2211 17 2296 37 193 100 351 203 504 87 129 159 206 271 291 180 135 365 214 582 248 111 18 218 19 2142 20 1724 1 2040 -2 2128 -14z" fill="#1b2c44" stroke="none" /><path d="M3070 8136 c-146 -40 -279 -153 -349 -296 -22 -47 -46 -110 -52 -140 -14 -74 -14 -4464 0 -4535 40 -203 175 -359 385 -444 37 -14 175 -16 1461 -21 l1420 -5 55 -23 c131 -54 242 -74 450 -79 181 -5 204 -3 320 21 526 107 942 506 1075 1031 29 114 40 310 26 470 -13 161 -56 307 -133 462 -76 152 -162 269 -296 401 -80 79 -106 111 -113 140 -5 20 -9 368 -9 772 0 798 0 786 -56 891 -22 39 -186 210 -644 669 -563 564 -620 619 -680 647 -36 17 -89 36 -118 42 -80 17 -2680 14 -2742 -3z m2545 -749 l1 -462 27 -74 c15 -41 41 -96 58 -123 66 -103 194 -193 334 -234 53 -15 116 -18 508 -21 l447 -4 0 -610 c0 -335 -2 -609 -4 -609 -2 0 -29 11 -60 25 -153 68 -311 99 -501 99 -155 0 -238 -11 -371 -49 -386 -112 -742 -447 -887 -835 -71 -190 -97 -332 -97 -525 0 -165 18 -280 66 -424 55 -167 168 -365 267 -468 l31 -33 -1125 0 c-743 0 -1137 4 -1161 10 -53 15 -119 68 -148 120 l-25 45 -3 2200 c-3 2484 -10 2268 77 2355 84 84 -11 79 1356 79 l1210 1 0 -463z m1182 -574 c-2 -1 -156 -3 -342 -4 -334 -2 -341 -1 -387 21 -26 12 -61 37 -77 56 -56 63 -61 103 -61 468 l0 331 435 -435 c239 -239 433 -435 432 -437z m-131 -1777 c435 -94 785 -450 859 -873 17 -99 19 -260 5 -351 -23 -137 -87 -298 -168 -421 -92 -139 -280 -299 -444 -376 -293 -138 -650 -134 -943 11 -158 78 -308 210 -406 359 -62 94 -81 134 -117 241 -43 127 -55 229 -49 397 10 280 103 503 296 709 157 167 344 272 560 313 94 18 306 13 407 -9z" fill="#1b2c44" stroke="none" /><path d="M3505 6937 c-69 -39 -101 -123 -74 -194 15 -42 68 -92 109 -103 21 -6 303 -10 725 -10 l691 0 44 23 c115 57 127 195 24 273 l-37 29 -721 2 -721 3 -40 -23z" fill="#1b2c44" stroke="none" /><path d="M3505 6077 c-43 -24 -85 -91 -85 -137 0 -46 42 -113 85 -137 l40 -23 948 0 c925 0 949 0 987 20 59 30 85 74 85 142 0 61 -17 94 -69 132 -27 21 -35 21 -989 23 l-962 3 -40 -23z" fill="#1b2c44" stroke="none" /><path d="M3555 5241 c-66 -16 -119 -68 -131 -129 -15 -73 32 -159 103 -188 43 -18 1411 -21 1446 -3 60 31 107 101 107 158 -1 47 -36 108 -81 138 l-43 28 -685 1 c-377 1 -699 -1 -716 -5z" fill="#1b2c44" stroke="none" /><path d="M6935 4510 c-29 -15 -122 -114 -345 -370 l-305 -349 -170 168 c-93 93 -180 174 -192 180 -12 6 -44 11 -72 11 -42 0 -56 -5 -86 -31 -64 -57 -82 -125 -50 -193 8 -17 124 -140 258 -273 207 -207 247 -242 280 -248 55 -11 103 2 144 38 20 18 176 192 347 387 170 195 328 375 349 400 84 95 95 168 35 236 -58 66 -120 80 -193 44z" fill="#1b2c44" stroke="none" /></g></svg>
  <path d="M124.10 27.76L157.65 27.76L157.65 68.50L150.35 68.50L150.35 33.91L131.40 33.91L131.40 68.50L124.10 68.50L124.10 27.76ZM178.79 69.13L178.79 69.13Q174.33 69.13 171.05 67.15Q167.77 65.16 165.98 61.62Q164.19 58.08 164.19 53.38L164.19 53.38Q164.19 48.62 165.98 45.05Q167.77 41.48 171.05 39.52Q174.33 37.55 178.79 37.55L178.79 37.55Q183.25 37.55 186.53 39.52Q189.81 41.48 191.61 45.05Q193.42 48.62 193.42 53.38L193.42 53.38Q193.42 58.08 191.61 61.62Q189.81 65.16 186.53 67.15Q183.25 69.13 178.79 69.13ZM178.79 63.36L178.79 63.36Q181.28 63.36 182.92 62.02Q184.56 60.68 185.38 58.41Q186.20 56.14 186.20 53.35L186.20 53.35Q186.20 50.54 185.38 48.27Q184.56 46.00 182.92 44.66Q181.28 43.32 178.79 43.32L178.79 43.32Q176.33 43.32 174.69 44.66Q173.05 46.00 172.24 48.27Q171.43 50.54 171.43 53.35L171.43 53.35Q171.43 56.14 172.24 58.41Q173.05 60.68 174.69 62.02Q176.33 63.36 178.79 63.36ZM207.25 68.50L199.95 68.50L199.95 27.76L207.25 27.76L207.25 44.60L226.20 44.60L226.20 27.76L233.50 27.76L233.50 68.50L226.20 68.50L226.20 50.75L207.25 50.75L207.25 68.50ZM254.64 69.13L254.64 69.13Q250.18 69.13 246.90 67.15Q243.62 65.16 241.83 61.62Q240.04 58.08 240.04 53.38L240.04 53.38Q240.04 48.62 241.83 45.05Q243.62 41.48 246.90 39.52Q250.18 37.55 254.64 37.55L254.64 37.55Q259.10 37.55 262.38 39.52Q265.66 41.48 267.46 45.05Q269.27 48.62 269.27 53.38L269.27 53.38Q269.27 58.08 267.46 61.62Q265.66 65.16 262.38 67.15Q259.10 69.13 254.64 69.13ZM254.64 63.36L254.64 63.36Q257.13 63.36 258.77 62.02Q260.41 60.68 261.23 58.41Q262.05 56.14 262.05 53.35L262.05 53.35Q262.05 50.54 261.23 48.27Q260.41 46.00 258.77 44.66Q257.13 43.32 254.64 43.32L254.64 43.32Q252.18 43.32 250.54 44.66Q248.90 46.00 248.09 48.27Q247.29 50.54 247.29 53.35L247.29 53.35Q247.29 56.14 248.09 58.41Q248.90 60.68 250.54 62.02Q252.18 63.36 254.64 63.36ZM282.59 79.93L275.48 79.93L275.48 37.93L282.42 37.93L282.42 42.99L282.89 42.99Q283.41 41.92 284.42 40.65Q285.43 39.38 287.18 38.46Q288.93 37.55 291.64 37.55L291.64 37.55Q295.16 37.55 298.02 39.35Q300.88 41.16 302.56 44.67Q304.24 48.18 304.24 53.27L304.24 53.27Q304.24 58.30 302.59 61.83Q300.93 65.36 298.09 67.20Q295.25 69.05 291.61 69.05L291.61 69.05Q288.98 69.05 287.25 68.16Q285.51 67.27 284.47 66.01Q283.43 64.75 282.89 63.66L282.89 63.66L282.59 63.66L282.59 79.93ZM289.70 63.20L289.70 63.20Q293.25 63.20 295.10 60.37Q296.94 57.54 296.94 53.24L296.94 53.24Q296.94 48.98 295.12 46.19Q293.30 43.40 289.70 43.40L289.70 43.40Q286.17 43.40 284.31 46.09Q282.45 48.79 282.45 53.24L282.45 53.24Q282.45 57.70 284.34 60.45Q286.22 63.20 289.70 63.20ZM317.37 68.50L310.42 68.50L310.42 37.93L321.22 37.93L326.39 51.60Q327.24 53.98 327.89 56.88Q328.55 59.78 329.02 62.43L329.02 62.43Q329.48 59.83 330.15 56.91Q330.82 53.98 331.64 51.60L331.64 51.60L336.67 37.93L347.55 37.93L347.55 68.50L340.61 68.50L340.61 55.13Q340.61 52.83 340.68 49.65Q340.75 46.46 340.80 43.32L340.80 43.32Q340.04 46.57 339.12 49.50Q338.20 52.42 337.16 55.13L337.16 55.13L332.00 68.50L325.95 68.50L320.70 55.13Q319.69 52.48 318.79 49.62Q317.89 46.76 317.12 43.70L317.12 43.70Q317.20 46.63 317.29 49.76Q317.37 52.89 317.37 55.13L317.37 55.13L317.37 68.50ZM368.61 69.13L368.61 69.13Q363.99 69.13 360.67 67.19Q357.34 65.25 355.55 61.72Q353.76 58.19 353.76 53.41L353.76 53.41Q353.76 48.70 355.53 45.13Q357.29 41.57 360.53 39.56Q363.77 37.55 368.14 37.55L368.14 37.55Q371.86 37.55 375.05 39.17Q378.23 40.80 380.18 44.21Q382.12 47.61 382.12 52.97L382.12 52.97L382.12 55.21L360.84 55.21Q360.98 59.29 363.13 61.42Q365.27 63.55 368.69 63.55L368.69 63.55Q371.04 63.55 372.72 62.54Q374.41 61.53 375.12 59.59L375.12 59.59L381.65 60.93Q380.56 64.62 377.13 66.87Q373.70 69.13 368.61 69.13ZM360.87 50.37L360.87 50.37L375.20 50.37Q374.87 47.09 373.11 45.11Q371.34 43.13 368.17 43.13L368.17 43.13Q364.92 43.13 363.02 45.22Q361.12 47.31 360.87 50.37Z" fill="#FFFFFF"/>
</svg>